<?xml version="1.0" encoding="utf-8"?>
<!-- Generator: Adobe Illustrator 18.1.0, SVG Export Plug-In . SVG Version: 6.00 Build 0)  -->
<svg version="1.1" id="Layer_1" xmlns="http://www.w3.org/2000/svg" xmlns:xlink="http://www.w3.org/1999/xlink" x="0px" y="0px"
	 viewBox="0 0 13.4 17.3" enable-background="new 0 0 13.4 17.3" xml:space="preserve">
<path fill="none" stroke="#231F20" stroke-miterlimit="10" d="M11.6,7.5H11V4.7c0-2.3-1.9-4.2-4.3-4.2c-2.4,0-4.3,1.9-4.3,4.2v2.8
	H1.8c-0.7,0-1.3,0.6-1.3,1.3v6.7c0,0.7,0.6,1.3,1.3,1.3h9.8c0.7,0,1.3-0.6,1.3-1.3V8.8C12.9,8.1,12.3,7.5,11.6,7.5z M7.1,12.6v1.6
	c0,0.2-0.2,0.4-0.4,0.4c-0.2,0-0.4-0.2-0.4-0.4v-1.6c-0.5-0.2-0.8-0.6-0.8-1.1c0-0.7,0.5-1.2,1.2-1.2c0.7,0,1.2,0.5,1.2,1.2
	C7.9,12,7.6,12.4,7.1,12.6z M9.4,7.5H4.1V4.7c0-1.4,1.2-2.6,2.7-2.6c1.5,0,2.7,1.2,2.7,2.6L9.4,7.5L9.4,7.5z"/>
</svg>
