<?xml version="1.0" encoding="utf-8"?>
<!-- Generator: Adobe Illustrator 18.1.0, SVG Export Plug-In . SVG Version: 6.00 Build 0)  -->
<svg version="1.1" id="Layer_1" xmlns="http://www.w3.org/2000/svg" xmlns:xlink="http://www.w3.org/1999/xlink" x="0px" y="0px"
	 viewBox="0 0 27.9 12.9" enable-background="new 0 0 27.9 12.9" xml:space="preserve">
<rect x="10.9" y="7.6" fill="none" stroke="#231F20" stroke-miterlimit="10" width="5.2" height="4.8"/>
<rect x="22.2" y="4.4" fill="#231F20" stroke="#231F20" stroke-miterlimit="10" width="5.2" height="4.8"/>
<rect x="10.9" y="0.5" fill="none" stroke="#231F20" stroke-miterlimit="10" width="5.2" height="4.8"/>
<g>
	<path fill="#231F20" d="M1.3,12.2"/>
</g>
<g>
	<line fill="#231F20" x1="16.1" y1="3.3" x2="21.6" y2="5.3"/>
	<g>
		<line fill="none" stroke="#231F20" stroke-width="0.5" stroke-miterlimit="10" x1="16.1" y1="3.3" x2="20" y2="4.7"/>
		<g>
			<polygon fill="#231F20" points="19.2,5.8 21.6,5.3 20,3.4 			"/>
		</g>
	</g>
</g>
<g>
	<line fill="#231F20" x1="16.1" y1="10" x2="21.6" y2="7.6"/>
	<g>
		<line fill="none" stroke="#231F20" stroke-width="0.5" stroke-miterlimit="10" x1="16.1" y1="10" x2="20" y2="8.3"/>
		<g>
			<polygon fill="#231F20" points="20.2,9.6 21.6,7.6 19.2,7.3 			"/>
		</g>
	</g>
</g>
<rect x="0.5" y="4.4" fill="none" stroke="#231F20" stroke-miterlimit="10" width="5.2" height="4.8"/>
<g>
	<line fill="#231F20" x1="6.1" y1="5.3" x2="10.6" y2="3.3"/>
	<g>
		<line fill="none" stroke="#231F20" stroke-width="0.5" stroke-miterlimit="10" x1="6.1" y1="5.3" x2="9" y2="4.1"/>
		<g>
			<polygon fill="#231F20" points="9.2,5.4 10.6,3.3 8.2,3.1 			"/>
		</g>
	</g>
</g>
<g>
	<line fill="#231F20" x1="6.1" y1="8" x2="10.6" y2="10.2"/>
	<g>
		<line fill="none" stroke="#231F20" stroke-width="0.5" stroke-miterlimit="10" x1="6.1" y1="8" x2="9" y2="9.4"/>
		<g>
			<polygon fill="#231F20" points="8.2,10.4 10.6,10.2 9.3,8.1 			"/>
		</g>
	</g>
</g>
</svg>
