<?xml version="1.0" encoding="utf-8"?>
<!-- Generator: Adobe Illustrator 18.1.0, SVG Export Plug-In . SVG Version: 6.00 Build 0)  -->
<svg version="1.1" id="Layer_1" xmlns="http://www.w3.org/2000/svg" xmlns:xlink="http://www.w3.org/1999/xlink" x="0px" y="0px"
	 viewBox="0 0 171 63.5" enable-background="new 0 0 171 63.5" xml:space="preserve">
<g>
	<path fill="#55514F" d="M67.2,20.8l4.5,0c2.8,0,4.7,0.1,5.7,0.4c1.4,0.3,2.6,1.1,3.5,2.1c0.9,1.1,1.3,2.4,1.3,4.1
		c0,1.7-0.4,3-1.3,4.1c-0.9,1.1-2.1,1.8-3.6,2.2c-1.1,0.3-3.2,0.4-6.3,0.4h-1.8v11.5l-2.1,0V20.8z M69.3,22.9v9l4.7,0
		c1.7,0,2.9-0.2,3.7-0.5c0.8-0.3,1.4-0.8,1.9-1.5c0.4-0.7,0.7-1.8,0.7-2.6c0-0.8-0.2-1.9-0.7-2.6c-0.4-0.7-1-1.2-1.8-1.5
		c-0.7-0.3-1.9-0.4-3.6-0.4L69.3,22.9z"/>
	<path fill="#55514F" d="M99.5,29.5v16.1h-2v-2.8c-0.9,1.1-1.8,1.9-2.9,2.4c-1.1,0.5-2.3,0.8-3.5,0.8c-2.3,0-4.2-0.8-5.9-2.5
		c-1.6-1.7-2.4-3.7-2.4-6c0-2.3,0.8-4.3,2.4-6c1.6-1.6,3.6-2.5,5.9-2.5c1.3,0,2.5,0.3,3.6,0.8c1.1,0.6,2,1.4,2.8,2.5v-3H99.5z
		 M91.2,31C90,31,89,31.3,88,31.9c-1,0.6-1.8,1.4-2.3,2.4c-0.6,1-0.9,2.1-0.9,3.3c0,1.1,0.3,2.2,0.9,3.3c0.6,1,1.4,1.8,2.3,2.4
		c1,0.6,2,0.9,3.2,0.9c1.1,0,2.2-0.3,3.2-0.9c1-0.6,1.8-1.3,2.3-2.3c0.5-1,0.8-2.1,0.8-3.3c0-1.9-0.6-3.4-1.8-4.7
		C94.5,31.7,93,31,91.2,31z"/>
	<path fill="#55514F" d="M103.4,29.5h2.1v2.4c0.6-0.9,1.3-1.6,2-2.1c0.7-0.5,1.4-0.7,2.2-0.7c0.6,0,1.2,0.2,1.8,0.5l-1.1,1.7
		c-0.4-0.2-0.8-0.3-1.1-0.3c-0.7,0-1.4,0.3-2,0.9c-0.6,0.6-1.1,1.5-1.5,2.6c-0.3,0.9-0.4,2.8-0.4,5.6v5.5h-2.1V29.5z"/>
	<path fill="#55514F" d="M129.4,29.5v16.1h-2v-2.8c-0.9,1.1-1.8,1.9-2.9,2.4c-1.1,0.5-2.3,0.8-3.6,0.8c-2.3,0-4.2-0.8-5.9-2.5
		c-1.6-1.7-2.4-3.7-2.4-6c0-2.3,0.8-4.3,2.4-6c1.6-1.6,3.6-2.5,5.9-2.5c1.3,0,2.5,0.3,3.6,0.8c1.1,0.6,2,1.4,2.8,2.5v-3H129.4z
		 M121.1,31c-1.2,0-2.2,0.3-3.2,0.9c-1,0.6-1.8,1.4-2.3,2.4c-0.6,1-0.9,2.1-0.9,3.3c0,1.1,0.3,2.2,0.9,3.3c0.6,1,1.4,1.8,2.3,2.4
		c1,0.6,2,0.9,3.2,0.9c1.1,0,2.2-0.3,3.2-0.9c1-0.6,1.8-1.3,2.3-2.3c0.5-1,0.8-2.1,0.8-3.3c0-1.9-0.6-3.4-1.8-4.7
		C124.4,31.7,122.9,31,121.1,31z"/>
	<path fill="#5096D2" d="M137.6,20.8h9.7c2.6,0,4.5,0.6,5.8,1.7c1.3,1.1,1.9,2.5,1.9,4c0,1.3-0.4,2.5-1.2,3.7
		c-0.8,1.2-2,2.1-3.6,2.9c-1.6,0.7-3.3,1.1-5.1,1.1c-1.2,0-2.6-0.2-4.4-0.6l-2,6.8c-0.5,1.6-0.7,2.7-0.7,3.2c0,0.4,0.2,0.7,0.5,1
		c0.3,0.2,1.1,0.4,2.4,0.5l-0.2,0.7h-9.8l0.2-0.7c1.3,0,2.2-0.2,2.7-0.7c0.5-0.4,1-1.7,1.6-3.7l4.1-14.1c0.5-1.7,0.7-2.8,0.7-3.4
		c0-0.4-0.2-0.8-0.5-1.1c-0.3-0.3-1.1-0.5-2.3-0.5L137.6,20.8z M141,32.3c1.4,0.4,2.5,0.5,3.3,0.5c1.3,0,2.5-0.3,3.6-0.8
		c1.1-0.6,1.9-1.4,2.6-2.5c0.6-1.1,0.9-2.2,0.9-3.4c0-1.2-0.4-2.2-1.1-2.9c-0.8-0.7-1.9-1.1-3.4-1.1c-0.8,0-1.8,0.1-3,0.3L141,32.3z
		"/>
	<path fill="#5096D2" d="M160.6,29c0.4,0.7,0.7,1.4,0.9,2c0.2,0.6,0.3,1.8,0.5,3.6l0.8,9c0.7-0.9,1.8-2.3,3.2-4.2
		c0.7-0.9,1.5-2.2,2.5-3.8c0.6-1,1-1.6,1.1-2c0.1-0.2,0.1-0.4,0.1-0.6c0-0.1,0-0.2-0.1-0.3c-0.1-0.1-0.3-0.2-0.7-0.3
		c-0.4-0.1-0.7-0.3-0.9-0.6c-0.2-0.3-0.4-0.7-0.4-1.1c0-0.5,0.1-0.9,0.4-1.2c0.3-0.3,0.7-0.5,1.1-0.5c0.5,0,1,0.2,1.4,0.7
		c0.4,0.4,0.6,1.1,0.6,1.9c0,1-0.3,2.1-1,3.3c-0.7,1.2-1.9,3.1-3.8,5.7c-1.9,2.6-4.2,5.4-6.8,8.4c-1.8,2.1-3.2,3.4-4.1,3.9
		c-0.9,0.5-1.6,0.8-2.3,0.8c-0.4,0-0.7-0.1-1-0.4c-0.3-0.3-0.4-0.6-0.4-1c0-0.5,0.2-0.9,0.6-1.3c0.4-0.4,0.8-0.6,1.3-0.6
		c0.2,0,0.4,0.1,0.6,0.2c0.1,0.1,0.2,0.2,0.3,0.5c0.1,0.3,0.2,0.5,0.3,0.6c0.1,0.1,0.1,0.1,0.2,0.1c0.1,0,0.2-0.1,0.4-0.2
		c0.7-0.4,1.4-1.1,2.3-2c1.2-1.2,2.1-2.2,2.6-2.9l-1-11.6c-0.2-1.9-0.4-3.1-0.8-3.5c-0.3-0.4-0.9-0.6-1.7-0.6c-0.3,0-0.7,0-1.4,0.1
		l-0.2-0.7L160.6,29z"/>
	<g>
		<path fill="#5096D2" d="M25.4,52.8c-0.1,0-0.3-0.1-0.4-0.2c-0.2-0.1-0.2-0.4-0.2-0.6L39,0.4C39.1,0.2,39.3,0,39.5,0
			c0.3,0,0.5,0.1,0.6,0.4l15.7,42c0.1,0.1,0,0.3,0,0.5c-0.1,0.1-0.2,0.2-0.3,0.3l-29.8,9.6C25.6,52.8,25.5,52.8,25.4,52.8z
			 M39.6,2.4L26.3,51.3l28.3-9.1L39.6,2.4z"/>
		<path fill="#55514F" d="M31.5,63.5c-8.2,0-15.2-5.8-16.7-13.9c-1.7-9.2,4.4-18.1,13.6-19.8c1-0.2,2.1-0.3,3.1-0.3
			c8.2,0,15.2,5.8,16.7,13.9c1.7,9.2-4.4,18.1-13.6,19.8C33.5,63.5,32.5,63.5,31.5,63.5z M31.5,30.7c-1,0-1.9,0.1-2.9,0.3
			c-8.6,1.6-14.3,9.9-12.7,18.5c1.4,7.5,7.9,13,15.6,13c1,0,1.9-0.1,2.9-0.3c8.6-1.6,14.3-9.9,12.7-18.5
			C45.7,36.2,39.1,30.7,31.5,30.7z"/>
		<path fill="#55514F" d="M38.6,39h-38C0.3,39,0,38.8,0,38.4V15.6c0-0.3,0.3-0.6,0.6-0.6h38c0.3,0,0.6,0.3,0.6,0.6v22.8
			C39.2,38.8,38.9,39,38.6,39z M1.1,37.9H38V16.2H1.1V37.9z"/>
	</g>
</g>
</svg>
